<svg width="136" height="30" viewBox="0 0 136 30" fill="none" xmlns="http://www.w3.org/2000/svg">
<path d="M8.39355 18.8838L13.2715 1.67188H16.2158L9.58008 23H7.23633L0.615234 1.67188H3.54492L8.39355 18.8838ZM31.582 3.98633H25.9717V23H23.291V3.98633H17.6953V1.67188H31.582V3.98633ZM40.8545 23C40.6982 22.6582 40.5859 22.082 40.5176 21.2715C39.5996 22.6191 38.4277 23.293 37.002 23.293C35.5664 23.293 34.4434 22.8926 33.6328 22.0918C32.832 21.2812 32.4316 20.1436 32.4316 18.6787C32.4316 17.0674 32.9785 15.7881 34.0723 14.8408C35.166 13.8936 36.665 13.4102 38.5693 13.3906H40.4736V11.7061C40.4736 10.7588 40.2637 10.085 39.8438 9.68457C39.4238 9.28418 38.7842 9.08398 37.9248 9.08398C37.1436 9.08398 36.5088 9.31836 36.0205 9.78711C35.5322 10.2461 35.2881 10.832 35.2881 11.5449H32.6953C32.6953 10.7344 32.9346 9.96289 33.4131 9.23047C33.8916 8.48828 34.5361 7.90723 35.3467 7.4873C36.1572 7.06738 37.0605 6.85742 38.0566 6.85742C39.6777 6.85742 40.9082 7.2627 41.748 8.07324C42.5977 8.87402 43.0322 10.0459 43.0518 11.5889V19.5869C43.0615 20.8076 43.2275 21.8672 43.5498 22.7656V23H40.8545ZM37.3975 20.9346C38.0322 20.9346 38.6377 20.7588 39.2139 20.4072C39.79 20.0557 40.21 19.6162 40.4736 19.0889V15.3096H39.0088C37.7783 15.3291 36.8066 15.6074 36.0938 16.1445C35.3809 16.6719 35.0244 17.4141 35.0244 18.3711C35.0244 19.2695 35.2051 19.9238 35.5664 20.334C35.9277 20.7344 36.5381 20.9346 37.3975 20.9346ZM49.8779 23H47.2852V0.5H49.8779V23ZM57.9492 15.749L56.5723 17.3311V23H53.9795V0.5H56.5723V13.9619L61.5088 7.15039H64.6143L59.5752 13.7715L65.2734 23H62.2559L57.9492 15.749ZM82.5439 23C82.3877 22.6582 82.2754 22.082 82.207 21.2715C81.2891 22.6191 80.1172 23.293 78.6914 23.293C77.2559 23.293 76.1328 22.8926 75.3223 22.0918C74.5215 21.2812 74.1211 20.1436 74.1211 18.6787C74.1211 17.0674 74.668 15.7881 75.7617 14.8408C76.8555 13.8936 78.3545 13.4102 80.2588 13.3906H82.1631V11.7061C82.1631 10.7588 81.9531 10.085 81.5332 9.68457C81.1133 9.28418 80.4736 9.08398 79.6143 9.08398C78.833 9.08398 78.1982 9.31836 77.71 9.78711C77.2217 10.2461 76.9775 10.832 76.9775 11.5449H74.3848C74.3848 10.7344 74.624 9.96289 75.1025 9.23047C75.5811 8.48828 76.2256 7.90723 77.0361 7.4873C77.8467 7.06738 78.75 6.85742 79.7461 6.85742C81.3672 6.85742 82.5977 7.2627 83.4375 8.07324C84.2871 8.87402 84.7217 10.0459 84.7412 11.5889V19.5869C84.751 20.8076 84.917 21.8672 85.2393 22.7656V23H82.5439ZM79.0869 20.9346C79.7217 20.9346 80.3271 20.7588 80.9033 20.4072C81.4795 20.0557 81.8994 19.6162 82.1631 19.0889V15.3096H80.6982C79.4678 15.3291 78.4961 15.6074 77.7832 16.1445C77.0703 16.6719 76.7139 17.4141 76.7139 18.3711C76.7139 19.2695 76.8945 19.9238 77.2559 20.334C77.6172 20.7344 78.2275 20.9346 79.0869 20.9346ZM91.5674 23H88.9746V0.5H91.5674V23ZM107.109 15.8369C107.109 18.3467 106.655 20.2168 105.747 21.4473C104.849 22.6777 103.574 23.293 101.924 23.293C100.332 23.293 99.1064 22.6924 98.2471 21.4912V29.0938H95.6689V7.15039H98.0127L98.1445 8.9082C99.0137 7.54102 100.259 6.85742 101.88 6.85742C103.618 6.85742 104.917 7.46289 105.776 8.67383C106.636 9.88477 107.08 11.6963 107.109 14.1084V15.8369ZM104.531 14.3574C104.531 12.5801 104.258 11.2715 103.711 10.4316C103.164 9.58203 102.285 9.15723 101.074 9.15723C99.834 9.15723 98.8916 9.77734 98.2471 11.0176V19.2646C98.8818 20.4756 99.834 21.0811 101.104 21.0811C102.275 21.0811 103.135 20.6611 103.682 19.8213C104.238 18.9717 104.521 17.6777 104.531 15.9395V14.3574ZM113.042 8.77637C114.028 7.49707 115.288 6.85742 116.821 6.85742C119.624 6.85742 121.045 8.72754 121.084 12.4678V23H118.506V12.585C118.506 11.3447 118.296 10.4658 117.876 9.94824C117.466 9.4209 116.846 9.15723 116.016 9.15723C115.371 9.15723 114.79 9.37207 114.272 9.80176C113.765 10.2314 113.354 10.793 113.042 11.4863V23H110.449V0.5H113.042V8.77637ZM133.11 23C132.954 22.6582 132.842 22.082 132.773 21.2715C131.855 22.6191 130.684 23.293 129.258 23.293C127.822 23.293 126.699 22.8926 125.889 22.0918C125.088 21.2812 124.688 20.1436 124.688 18.6787C124.688 17.0674 125.234 15.7881 126.328 14.8408C127.422 13.8936 128.921 13.4102 130.825 13.3906H132.729V11.7061C132.729 10.7588 132.52 10.085 132.1 9.68457C131.68 9.28418 131.04 9.08398 130.181 9.08398C129.399 9.08398 128.765 9.31836 128.276 9.78711C127.788 10.2461 127.544 10.832 127.544 11.5449H124.951C124.951 10.7344 125.19 9.96289 125.669 9.23047C126.147 8.48828 126.792 7.90723 127.603 7.4873C128.413 7.06738 129.316 6.85742 130.312 6.85742C131.934 6.85742 133.164 7.2627 134.004 8.07324C134.854 8.87402 135.288 10.0459 135.308 11.5889V19.5869C135.317 20.8076 135.483 21.8672 135.806 22.7656V23H133.11ZM129.653 20.9346C130.288 20.9346 130.894 20.7588 131.47 20.4072C132.046 20.0557 132.466 19.6162 132.729 19.0889V15.3096H131.265C130.034 15.3291 129.062 15.6074 128.35 16.1445C127.637 16.6719 127.28 17.4141 127.28 18.3711C127.28 19.2695 127.461 19.9238 127.822 20.334C128.184 20.7344 128.794 20.9346 129.653 20.9346Z" fill="black"/>
</svg>
