<svg width="71" height="71" viewBox="0 0 71 71" fill="none" xmlns="http://www.w3.org/2000/svg">
<g clip-path="url(#clip0)">
<path d="M35.0001 14.1667C31.548 14.1667 28.7501 16.9647 28.7501 20.4167V32.9167C28.7501 36.3688 31.548 39.1667 35.0001 39.1667C38.4522 39.1667 41.2501 36.3688 41.2501 32.9167V20.4167C41.2501 16.9647 38.4522 14.1667 35.0001 14.1667ZM35.0001 18.3334C36.148 18.3334 37.0834 19.2688 37.0834 20.4167V32.9167C37.0834 34.0647 36.148 35.0001 35.0001 35.0001C33.8522 35.0001 32.9167 34.0647 32.9167 32.9167V20.4167C32.9167 19.2688 33.8522 18.3334 35.0001 18.3334ZM20.4167 32.9167C20.4167 40.2611 25.8529 46.3193 32.9167 47.3333V53.7501H37.0834V47.3333C44.1472 46.3193 49.5834 40.2611 49.5834 32.9167H45.4167C45.4167 38.6688 40.7522 43.3334 35.0001 43.3334C29.248 43.3334 24.5834 38.6688 24.5834 32.9167H20.4167Z" fill="#5B5B5B"/>
</g>
<defs>
<clipPath id="clip0">
<rect width="50" height="50" fill="white" transform="translate(70.7104 35.2769) rotate(134.873)"/>
</clipPath>
</defs>
</svg>
