<svg width="33" height="33" viewBox="0 0 33 33" fill="none" xmlns="http://www.w3.org/2000/svg">
<path d="M11.55 0C5.19065 0 0 5.19065 0 11.55C0 17.9093 5.19065 23.1 11.55 23.1C14.4342 23.1 17.0693 22.0242 19.0975 20.2641L19.8 20.9666V23.1L29.7 33L33 29.7L23.1 19.8H20.9666L20.2641 19.0975C22.0242 17.0693 23.1 14.4342 23.1 11.55C23.1 5.19065 17.9093 0 11.55 0ZM11.55 3.3C16.1259 3.3 19.8 6.97411 19.8 11.55C19.8 16.1259 16.1259 19.8 11.55 19.8C6.97411 19.8 3.3 16.1259 3.3 11.55C3.3 6.97411 6.97411 3.3 11.55 3.3Z" fill="#9E9EA0"/>
</svg>
