<svg width="24" height="25" viewBox="0 0 24 25" fill="none" xmlns="http://www.w3.org/2000/svg">
<path d="M9.15024 0.290161L8.55167 3.37124C7.54537 3.75074 6.6213 4.2827 5.81161 4.94755L2.85215 3.92689L0 8.86329L2.37043 10.9237C2.2793 11.4832 2.23211 12.0017 2.23211 12.5C2.23211 12.9991 2.28072 13.5166 2.37043 14.0763V14.0787L0 16.1391L2.85215 21.0732L5.80922 20.0549C6.61899 20.7201 7.54515 21.2491 8.55167 21.6288L9.15024 24.7099H14.8498L15.4483 21.6288C16.4553 21.249 17.3783 20.7179 18.1884 20.0525L21.1479 21.0732L23.9976 16.1391L21.6296 14.0763C21.7207 13.5168 21.7679 12.9984 21.7679 12.5C21.7679 12.0024 21.7204 11.4846 21.6296 10.9261V10.9237L24 8.86091L21.1479 3.92689L18.1908 4.94517C17.381 4.27995 16.4548 3.75096 15.4483 3.37124L14.8498 0.290161H9.15024ZM11.163 2.73213H12.837L13.3116 5.1741L14.5851 5.65582C15.3526 5.94512 16.0423 6.34229 16.6407 6.83388L17.6948 7.69716L20.0413 6.89112L20.8784 8.33865L19.004 9.96981L19.2186 11.3124V11.3148C19.2933 11.7726 19.3259 12.1566 19.3259 12.5C19.3259 12.8434 19.2933 13.2274 19.2186 13.6852L19.0016 15.0278L20.876 16.659L20.0389 18.1089L17.6948 17.3005L16.6383 18.1662C16.0399 18.6577 15.3526 19.0549 14.5851 19.3442H14.5827L13.3092 19.8259L12.8347 22.2679H11.163L10.6884 19.8259L9.41494 19.3442C8.64735 19.0549 7.95772 18.6577 7.3593 18.1662L6.30525 17.3029L3.95866 18.1089L3.12162 16.6614L4.99841 15.0278L4.7814 13.69V13.6876C4.70781 13.2278 4.67409 12.8427 4.67409 12.5C4.67409 12.1566 4.70674 11.7727 4.7814 11.3148L4.99841 9.9722L3.12162 8.34104L3.95866 6.89112L6.30525 7.69954L7.3593 6.83388C7.95772 6.34229 8.64735 5.94512 9.41494 5.65582L10.6884 5.1741L11.163 2.73213ZM12 7.61608C9.31808 7.61608 7.11606 9.8181 7.11606 12.5C7.11606 15.1819 9.31808 17.384 12 17.384C14.6819 17.384 16.8839 15.1819 16.8839 12.5C16.8839 9.8181 14.6819 7.61608 12 7.61608ZM12 10.058C13.3571 10.058 14.442 11.1429 14.442 12.5C14.442 13.8571 13.3571 14.942 12 14.942C10.6429 14.942 9.55803 13.8571 9.55803 12.5C9.55803 11.1429 10.6429 10.058 12 10.058Z" fill="#FFF"/>
</svg>
