<svg width="49" height="48" viewBox="0 0 49 48" fill="none" xmlns="http://www.w3.org/2000/svg">
<path d="M24.25 6.00012L12.25 18.0001H4.25V30.0001H12.25L24.25 42.0001V6.00012ZM28.25 6.19934V10.1993C34.625 11.1368 39.5952 16.2946 40.1914 22.7032C40.2312 23.1305 40.25 23.5626 40.25 24.0001C40.25 31.0001 35.05 36.8009 28.25 37.8009V41.8009C37.25 40.8009 44.25 33.2001 44.25 24.0001C44.25 14.8001 37.25 7.19934 28.25 6.19934ZM28.25 14.1993V18.3986C30.65 19.1986 32.25 21.4001 32.25 24.0001C32.25 26.6001 30.65 28.8017 28.25 29.6017V33.8009C32.85 32.8009 36.25 28.8001 36.25 24.0001C36.25 19.2001 32.85 15.1993 28.25 14.1993ZM20.25 15.6564V32.3439L13.9062 26.0001H8.25V22.0001H13.9062L20.25 15.6564Z" fill="#FFF"/>
</svg>
